<!-- Generator: Adobe Illustrator 23.0.1, SVG Export Plug-In  -->
<svg version="1.1" xmlns="http://www.w3.org/2000/svg" xmlns:xlink="http://www.w3.org/1999/xlink" x="0px" y="0px" width="92.8px"
	 height="70.601px" viewBox="0 0 92.8 70.601" style="enable-background:new 0 0 92.8 70.601;" xml:space="preserve">
<defs>
</defs>
<path d="M34,15.553c-1.4,0-2.5-0.983-2.5-2.235C31.5,5.989,38.2,0,46.4,0s14.9,5.989,14.9,13.318c0,1.251-1.1,2.235-2.5,2.235
	s-2.5-0.983-2.5-2.235c0-4.916-4.4-8.849-9.9-8.849s-9.9,3.933-9.9,8.849C36.5,14.57,35.4,15.553,34,15.553z M15.1,58.701v8.4
	c0,1.4-1.1,2.5-2.5,2.5s-2.5-1.1-2.5-2.5v-8.4c0-4.6,3.7-8.3,8.3-8.3h4.8c-0.1-1-0.2-2.1-0.2-3.1v-2.1H2.5c-1.4,0-2.5-1.1-2.5-2.5
	s1.1-2.5,2.5-2.5H23v-5.3h-4.6c-4.6,0-8.3-3.7-8.3-8.3v-8.4c0-1.4,1.1-2.5,2.5-2.5c1.4,0,2.5,1.1,2.5,2.5v8.4c0,1.8,1.5,3.3,3.3,3.3
	h4.7c0.6-4.7,4.6-8.4,9.5-8.4h27.5c4.9,0,8.9,3.7,9.5,8.4h4.8c1.8,0,3.3-1.5,3.3-3.3v-8.4c0-1.4,1.1-2.5,2.5-2.5s2.5,1.1,2.5,2.5
	v8.4c0,4.6-3.7,8.3-8.3,8.3h-4.6v5.3h20.5c1.4,0,2.5,1.1,2.5,2.5s-1.1,2.5-2.5,2.5H69.8v2.1c0,1.1-0.1,2.1-0.2,3.1h4.8
	c4.6,0,8.3,3.7,8.3,8.3v8.4c0,1.4-1.1,2.5-2.5,2.5s-2.5-1.1-2.5-2.5v-8.4c0-1.8-1.5-3.3-3.3-3.3h-6c-3.4,8.8-11.9,15.2-22,15.2
	s-18.6-6.4-21.9-15.3h-6C16.6,55.301,15.1,56.801,15.1,58.701z M60.2,26.401H48.9v39c9-1.2,15.9-8.9,15.9-18.2v-16.2
	C64.8,28.501,62.7,26.401,60.2,26.401z M28,47.201c0,9.3,6.9,17,15.9,18.2v-39H32.6c-2.6,0-4.6,2.1-4.6,4.6V47.201z"/>
</svg>
